# xmcd
#
# Track frame offsets:
#	150
#	13323
#	24997
#	37728
#	49832
#	64191
#	76672
#	91063
#	107139
#	130789
#	147932
#	161980
#	191799
#	205818
#	217825
#	229096
#	246157
#	258600
#	270104
#	287356
#	301266
#	312101
#
# Disc length: 4378 seconds
#
# Revision: 0
# Processed by: cddbd v1.5.1PL0 Copyright (c) Steve Scherf et al.
# Submitted via: dBpowerAMP V4.0
#
DISCID=25111816
DTITLE=Dana Erlandson - Pick Two
DYEAR=1997
DGENRE=Country
TTITLE0=Blind To Love
TTITLE1=Midnight Train
TTITLE2=Illinois Plates
TTITLE3=Everything That Matters
TTITLE4=Tonight I'm Gonna Get Lucky
TTITLE5=Ol' West Wind
TTITLE6=Truck Drivin' Blues
TTITLE7=On The Road Again
TTITLE8=Middle Of The Night
TTITLE9=Out Of Sight
TTITLE10=A Postcard Dream
TTITLE11=Magnolia
TTITLE12=River Queen
TTITLE13=Talkin' On The Telephone
TTITLE14=Too Much Fun
TTITLE15=Today
TTITLE16=All I Ever Need Is You
TTITLE17=I'll Be Back
TTITLE18=Harry And Sara
TTITLE19=No Place On Earth
TTITLE20=One More Chance
TTITLE21=Right Before My Eyes
EXTD=
EXTT0=
EXTT1=
EXTT2=
EXTT3=
EXTT4=
EXTT5=
EXTT6=
EXTT7=
EXTT8=
EXTT9=
EXTT10=
EXTT11=
EXTT12=
EXTT13=
EXTT14=
EXTT15=
EXTT16=
EXTT17=
EXTT18=
EXTT19=
EXTT20=
EXTT21=
PLAYORDER=
